<?xml version="1.0" standalone="no"?>
<!DOCTYPE svg PUBLIC "-//W3C//DTD SVG 20010904//EN"
 "http://www.w3.org/TR/2001/REC-SVG-20010904/DTD/svg10.dtd">
<svg version="1.0" xmlns="http://www.w3.org/2000/svg"
 width="400.000000pt" height="400.000000pt" viewBox="0 0 400.000000 400.000000"
 preserveAspectRatio="xMidYMid meet">
<metadata>
Created by potrace 1.14, written by Peter Selinger 2001-2017
</metadata>
<g transform="translate(0.000000,400.000000) scale(0.100000,-0.100000)"
fill="#000000" stroke="none">
<path d="M0 2000 l0 -2000 1933 3 c1062 1 1940 5 1949 8 10 3 21 8 24 12 4 4
18 7 30 7 13 0 26 5 29 10 4 6 11 7 17 4 7 -4 8 -2 4 4 -4 7 -2 12 3 12 8 0
11 590 11 1970 l0 1970 -2000 0 -2000 0 0 -2000z"/>
</g>
</svg>
